<?xml version="1.0" standalone="no"?>
<!DOCTYPE svg PUBLIC "-//W3C//DTD SVG 20010904//EN"
 "http://www.w3.org/TR/2001/REC-SVG-20010904/DTD/svg10.dtd">
<svg version="1.0" xmlns="http://www.w3.org/2000/svg"
 width="978.000000pt" height="287.000000pt" viewBox="0 0 978.000000 287.000000"
 preserveAspectRatio="xMidYMid meet">

<g transform="translate(0.000000,287.000000) scale(0.100000,-0.100000)"
fill="#F4ACBC" stroke="none">
<path d="M5061 2842 c-14 -26 -14 -468 0 -494 6 -12 19 -18 32 -16 22 3 22 3
22 263 0 260 0 260 -22 263 -13 2 -26 -4 -32 -16z"/>
<path d="M5683 2758 c-6 -7 -56 -123 -112 -256 -102 -243 -111 -282 -72 -282
26 0 32 10 84 135 25 61 71 172 102 247 48 114 55 140 45 153 -15 18 -34 19
-47 3z"/>
<path d="M4463 2713 c-27 -10 -9 -50 110 -238 109 -176 125 -195 147 -193 14
2 26 10 28 19 3 16 -230 396 -252 411 -12 9 -16 9 -33 1z"/>
<path d="M2445 2261 c-224 -30 -346 -137 -386 -339 -23 -120 -4 -230 86 -499
63 -186 80 -280 64 -351 -36 -163 -220 -282 -432 -282 -147 1 -329 73 -482
191 -265 204 -501 319 -820 399 -130 33 -202 46 -432 77 l-43 5 0 -95 0 -95
98 -12 c239 -29 463 -87 652 -167 143 -61 251 -124 389 -229 253 -192 416
-257 641 -257 184 0 333 54 455 165 116 106 165 215 165 361 0 102 -14 161
-91 390 -55 161 -62 193 -66 277 -3 82 -1 102 19 150 37 89 97 118 258 127
164 9 429 -40 705 -132 93 -31 132 -40 137 -32 4 7 17 41 29 77 12 36 24 70
26 76 5 14 -229 92 -401 135 -211 51 -446 76 -571 60z"/>
<path d="M5997 2124 c-184 -93 -208 -107 -205 -127 2 -13 11 -23 24 -25 26 -4
423 193 431 213 6 17 -13 45 -31 44 -6 0 -105 -47 -219 -105z"/>
<path d="M3854 2180 c-111 -39 -216 -137 -255 -238 -30 -79 -37 -200 -14 -278
31 -109 113 -208 212 -257 78 -38 264 -100 272 -91 8 10 271 770 271 784 0 5
-63 29 -139 54 -120 39 -151 46 -218 45 -48 0 -97 -7 -129 -19z"/>
<path d="M4391 2097 c-8 -11 -253 -704 -281 -799 -12 -38 4 -53 88 -79 63 -20
74 -21 86 -9 18 21 289 813 285 835 -3 12 -26 26 -73 42 -81 27 -90 28 -105
10z"/>
<path d="M3426 1977 c-19 -56 -32 -105 -28 -108 9 -10 125 -50 129 -45 2 1 19
49 38 105 l34 102 -27 10 c-15 6 -46 17 -69 24 l-41 12 -36 -100z"/>
<path d="M9665 1996 c-293 -83 -482 -210 -565 -379 -22 -45 -45 -109 -51 -142
-17 -88 -4 -249 32 -415 41 -193 43 -276 7 -353 -54 -115 -190 -212 -364 -258
-59 -16 -109 -22 -199 -22 -152 -1 -249 23 -435 105 -329 146 -544 227 -880
333 -129 40 -242 77 -251 80 -14 5 -22 -11 -47 -83 l-30 -90 77 -22 c306 -89
673 -222 970 -352 235 -102 291 -122 410 -144 128 -24 336 -15 455 20 251 75
419 217 486 411 31 89 27 194 -15 401 -55 275 -47 399 35 503 71 89 224 173
413 227 l67 19 0 92 c0 108 7 104 -115 69z"/>
<path d="M5562 1654 c-22 -15 -28 -48 -13 -73 8 -12 305 -121 340 -125 17 -1
47 82 35 94 -7 6 -327 120 -338 120 -1 0 -12 -7 -24 -16z"/>
<path d="M6023 1642 c-14 -9 -21 -28 -173 -470 -67 -194 -120 -360 -118 -369
4 -19 123 -65 158 -61 23 3 30 16 77 153 28 83 92 268 142 413 49 145 88 269
85 277 -10 24 -150 71 -171 57z"/>
<path d="M6207 1468 c-14 -40 -71 -206 -127 -368 -112 -324 -121 -352 -117
-357 2 -2 64 -24 138 -49 129 -44 138 -46 229 -42 80 3 105 8 160 34 206 97
299 347 207 555 -30 69 -111 157 -175 192 -39 21 -268 107 -286 107 -2 0 -15
-33 -29 -72z"/>
<path d="M5378 1129 c-26 -15 -23 -65 5 -83 21 -14 311 -116 329 -116 10 0 38
61 38 83 0 9 -60 34 -165 70 -176 61 -181 62 -207 46z"/>
<path d="M6775 1020 c-3 -5 -20 -52 -39 -105 l-33 -96 26 -11 c75 -29 105 -38
112 -31 11 13 69 196 63 202 -12 13 -125 48 -129 41z"/>
<path d="M4076 915 c-115 -46 -213 -90 -217 -97 -9 -14 7 -48 22 -48 11 0 224
82 364 141 63 26 75 35 75 54 0 18 -21 39 -33 34 -1 0 -96 -38 -211 -84z"/>
<path d="M5450 696 c-7 -9 -8 -21 -3 -30 4 -8 75 -87 158 -175 105 -113 156
-161 171 -161 31 0 38 27 13 58 -48 62 -302 322 -314 322 -7 0 -18 -7 -25 -14z"/>
<path d="M4606 687 c-8 -7 -81 -93 -161 -192 -143 -178 -164 -216 -128 -230
21 -7 32 4 179 186 163 201 165 205 159 222 -9 22 -30 28 -49 14z"/>
<path d="M4974 585 c-9 -23 27 -559 38 -572 13 -17 33 -16 46 0 12 14 -18 552
-31 575 -11 17 -46 15 -53 -3z"/>
</g>
</svg>
